<svg width="661" height="419" viewBox="0 0 661 419" fill="none" xmlns="http://www.w3.org/2000/svg">
<rect width="661" height="419" fill="#1E1E1E"/>
<rect width="661" height="419" fill="white"/>
<ellipse cx="115.5" cy="190" rx="48.5" ry="50" fill="#D9D9D9"/>
<ellipse cx="188.5" cy="239" rx="51.5" ry="50" fill="#2A546B"/>
<ellipse cx="227.5" cy="190" rx="48.5" ry="50" fill="#D9D9D9"/>
<ellipse cx="300.5" cy="239" rx="51.5" ry="50" fill="#2A546B"/>
<ellipse cx="348.5" cy="181" rx="48.5" ry="50" fill="#D9D9D9"/>
<ellipse cx="421.5" cy="230" rx="51.5" ry="50" fill="#2A546B"/>
<ellipse cx="470.5" cy="181" rx="48.5" ry="50" fill="#D9D9D9"/>
<ellipse cx="543.5" cy="230" rx="51.5" ry="50" fill="#2A546B"/>
<g filter="url(#filter0_i_0_1)">
<path d="M218.557 211C218.481 210.053 218.126 209.314 217.491 208.784C216.866 208.254 215.915 207.989 214.636 207.989C213.822 207.989 213.154 208.088 212.634 208.287C212.122 208.476 211.743 208.737 211.497 209.068C211.251 209.4 211.123 209.778 211.114 210.205C211.095 210.555 211.156 210.872 211.298 211.156C211.45 211.431 211.687 211.682 212.009 211.909C212.33 212.127 212.742 212.326 213.244 212.506C213.746 212.686 214.343 212.847 215.034 212.989L217.42 213.5C219.03 213.841 220.408 214.291 221.554 214.849C222.7 215.408 223.637 216.066 224.366 216.824C225.096 217.572 225.631 218.415 225.972 219.352C226.322 220.29 226.502 221.312 226.511 222.42C226.502 224.333 226.024 225.953 225.077 227.278C224.13 228.604 222.776 229.613 221.014 230.304C219.262 230.995 217.155 231.341 214.693 231.341C212.165 231.341 209.958 230.967 208.074 230.219C206.199 229.471 204.741 228.32 203.699 226.767C202.667 225.205 202.146 223.206 202.136 220.773H209.636C209.684 221.663 209.906 222.411 210.304 223.017C210.702 223.623 211.26 224.082 211.98 224.395C212.709 224.707 213.576 224.864 214.58 224.864C215.422 224.864 216.128 224.759 216.696 224.551C217.264 224.343 217.695 224.054 217.989 223.685C218.282 223.315 218.434 222.894 218.443 222.42C218.434 221.975 218.287 221.587 218.003 221.256C217.728 220.915 217.274 220.612 216.639 220.347C216.005 220.072 215.148 219.816 214.068 219.58L211.17 218.955C208.595 218.396 206.563 217.463 205.077 216.156C203.599 214.84 202.866 213.045 202.875 210.773C202.866 208.926 203.358 207.312 204.352 205.929C205.356 204.537 206.743 203.453 208.514 202.676C210.295 201.9 212.335 201.511 214.636 201.511C216.985 201.511 219.016 201.904 220.73 202.69C222.444 203.476 223.765 204.584 224.693 206.014C225.631 207.435 226.104 209.097 226.114 211H218.557ZM237.47 218.727V231H229.629V201.909H237.186V213.33H237.413C237.906 211.937 238.725 210.853 239.871 210.077C241.017 209.291 242.394 208.898 244.004 208.898C245.548 208.898 246.888 209.248 248.024 209.949C249.17 210.65 250.055 211.616 250.68 212.847C251.315 214.078 251.627 215.489 251.618 217.08V231H243.777V218.727C243.786 217.648 243.517 216.8 242.967 216.185C242.428 215.569 241.656 215.261 240.652 215.261C240.018 215.261 239.459 215.403 238.976 215.688C238.502 215.962 238.133 216.36 237.868 216.881C237.612 217.392 237.48 218.008 237.47 218.727ZM261.568 231.341C260.176 231.341 258.945 231.114 257.875 230.659C256.814 230.195 255.981 229.494 255.375 228.557C254.769 227.619 254.466 226.426 254.466 224.977C254.466 223.784 254.67 222.766 255.077 221.923C255.484 221.071 256.052 220.375 256.781 219.835C257.51 219.295 258.358 218.884 259.324 218.599C260.299 218.315 261.35 218.131 262.477 218.045C263.699 217.951 264.679 217.837 265.418 217.705C266.166 217.562 266.705 217.368 267.037 217.122C267.368 216.866 267.534 216.53 267.534 216.114V216.057C267.534 215.489 267.316 215.053 266.881 214.75C266.445 214.447 265.886 214.295 265.205 214.295C264.456 214.295 263.846 214.461 263.372 214.793C262.908 215.115 262.629 215.612 262.534 216.284H255.318C255.413 214.958 255.834 213.737 256.582 212.619C257.34 211.492 258.443 210.593 259.892 209.92C261.341 209.239 263.15 208.898 265.318 208.898C266.881 208.898 268.282 209.082 269.523 209.452C270.763 209.812 271.819 210.318 272.69 210.972C273.562 211.616 274.224 212.373 274.679 213.244C275.143 214.106 275.375 215.044 275.375 216.057V231H268.045V227.932H267.875C267.439 228.746 266.909 229.404 266.284 229.906C265.669 230.408 264.963 230.773 264.168 231C263.382 231.227 262.515 231.341 261.568 231.341ZM264.125 226.398C264.722 226.398 265.28 226.275 265.801 226.028C266.331 225.782 266.762 225.427 267.094 224.963C267.425 224.499 267.591 223.936 267.591 223.273V221.455C267.383 221.54 267.16 221.62 266.923 221.696C266.696 221.772 266.45 221.843 266.185 221.909C265.929 221.975 265.654 222.037 265.361 222.094C265.077 222.151 264.778 222.203 264.466 222.25C263.86 222.345 263.363 222.501 262.974 222.719C262.596 222.927 262.312 223.188 262.122 223.5C261.942 223.803 261.852 224.144 261.852 224.523C261.852 225.129 262.065 225.593 262.491 225.915C262.918 226.237 263.462 226.398 264.125 226.398ZM279.121 231V209.182H286.962V231H279.121ZM283.042 206.909C281.981 206.909 281.072 206.559 280.315 205.858C279.557 205.157 279.178 204.314 279.178 203.33C279.178 202.345 279.557 201.502 280.315 200.801C281.072 200.1 281.981 199.75 283.042 199.75C284.112 199.75 285.021 200.1 285.769 200.801C286.527 201.502 286.906 202.345 286.906 203.33C286.906 204.314 286.527 205.157 285.769 205.858C285.021 206.559 284.112 206.909 283.042 206.909ZM298.798 201.909V231H290.957V201.909H298.798ZM308.873 231.341C307.481 231.341 306.25 231.114 305.18 230.659C304.119 230.195 303.286 229.494 302.68 228.557C302.074 227.619 301.771 226.426 301.771 224.977C301.771 223.784 301.974 222.766 302.381 221.923C302.789 221.071 303.357 220.375 304.086 219.835C304.815 219.295 305.663 218.884 306.629 218.599C307.604 218.315 308.655 218.131 309.782 218.045C311.004 217.951 311.984 217.837 312.722 217.705C313.47 217.562 314.01 217.368 314.342 217.122C314.673 216.866 314.839 216.53 314.839 216.114V216.057C314.839 215.489 314.621 215.053 314.185 214.75C313.75 214.447 313.191 214.295 312.509 214.295C311.761 214.295 311.15 214.461 310.677 214.793C310.213 215.115 309.933 215.612 309.839 216.284H302.623C302.718 214.958 303.139 213.737 303.887 212.619C304.645 211.492 305.748 210.593 307.197 209.92C308.646 209.239 310.454 208.898 312.623 208.898C314.185 208.898 315.587 209.082 316.827 209.452C318.068 209.812 319.124 210.318 319.995 210.972C320.866 211.616 321.529 212.373 321.984 213.244C322.448 214.106 322.68 215.044 322.68 216.057V231H315.35V227.932H315.18C314.744 228.746 314.214 229.404 313.589 229.906C312.973 230.408 312.268 230.773 311.472 231C310.686 231.227 309.82 231.341 308.873 231.341ZM311.43 226.398C312.026 226.398 312.585 226.275 313.106 226.028C313.636 225.782 314.067 225.427 314.398 224.963C314.73 224.499 314.896 223.936 314.896 223.273V221.455C314.687 221.54 314.465 221.62 314.228 221.696C314.001 221.772 313.754 221.843 313.489 221.909C313.234 221.975 312.959 222.037 312.665 222.094C312.381 222.151 312.083 222.203 311.771 222.25C311.165 222.345 310.667 222.501 310.279 222.719C309.9 222.927 309.616 223.188 309.427 223.5C309.247 223.803 309.157 224.144 309.157 224.523C309.157 225.129 309.37 225.593 309.796 225.915C310.222 226.237 310.767 226.398 311.43 226.398ZM326.426 209.182H334.267V231.739C334.267 233.652 333.865 235.148 333.06 236.227C332.264 237.307 331.147 238.069 329.707 238.514C328.268 238.959 326.587 239.182 324.665 239.182C324.381 239.182 324.12 239.177 323.884 239.168C323.637 239.158 323.367 239.144 323.074 239.125V233.33C323.263 233.348 323.429 233.363 323.571 233.372C323.704 233.382 323.841 233.386 323.983 233.386C324.92 233.386 325.56 233.24 325.901 232.946C326.251 232.662 326.426 232.203 326.426 231.568V209.182ZM330.347 206.909C329.286 206.909 328.377 206.559 327.619 205.858C326.862 205.157 326.483 204.314 326.483 203.33C326.483 202.345 326.862 201.502 327.619 200.801C328.377 200.1 329.286 199.75 330.347 199.75C331.417 199.75 332.326 200.1 333.074 200.801C333.831 201.502 334.21 202.345 334.21 203.33C334.21 204.314 333.831 205.157 333.074 205.858C332.326 206.559 331.417 206.909 330.347 206.909ZM344.342 231.341C342.95 231.341 341.719 231.114 340.648 230.659C339.588 230.195 338.754 229.494 338.148 228.557C337.542 227.619 337.239 226.426 337.239 224.977C337.239 223.784 337.443 222.766 337.85 221.923C338.257 221.071 338.826 220.375 339.555 219.835C340.284 219.295 341.131 218.884 342.097 218.599C343.073 218.315 344.124 218.131 345.251 218.045C346.472 217.951 347.452 217.837 348.191 217.705C348.939 217.562 349.479 217.368 349.81 217.122C350.142 216.866 350.308 216.53 350.308 216.114V216.057C350.308 215.489 350.09 215.053 349.654 214.75C349.219 214.447 348.66 214.295 347.978 214.295C347.23 214.295 346.619 214.461 346.146 214.793C345.682 215.115 345.402 215.612 345.308 216.284H338.092C338.186 214.958 338.608 213.737 339.356 212.619C340.113 211.492 341.217 210.593 342.665 209.92C344.114 209.239 345.923 208.898 348.092 208.898C349.654 208.898 351.056 209.082 352.296 209.452C353.537 209.812 354.593 210.318 355.464 210.972C356.335 211.616 356.998 212.373 357.452 213.244C357.916 214.106 358.148 215.044 358.148 216.057V231H350.819V227.932H350.648C350.213 228.746 349.683 229.404 349.058 229.906C348.442 230.408 347.737 230.773 346.941 231C346.155 231.227 345.289 231.341 344.342 231.341ZM346.898 226.398C347.495 226.398 348.054 226.275 348.575 226.028C349.105 225.782 349.536 225.427 349.867 224.963C350.199 224.499 350.364 223.936 350.364 223.273V221.455C350.156 221.54 349.933 221.62 349.697 221.696C349.469 221.772 349.223 221.843 348.958 221.909C348.702 221.975 348.428 222.037 348.134 222.094C347.85 222.151 347.552 222.203 347.239 222.25C346.633 222.345 346.136 222.501 345.748 222.719C345.369 222.927 345.085 223.188 344.896 223.5C344.716 223.803 344.626 224.144 344.626 224.523C344.626 225.129 344.839 225.593 345.265 225.915C345.691 226.237 346.236 226.398 346.898 226.398ZM368.955 208.273V201.909H394.239V208.273H385.489V231H377.705V208.273H368.955ZM400.435 231.341C399.043 231.341 397.812 231.114 396.742 230.659C395.682 230.195 394.848 229.494 394.242 228.557C393.636 227.619 393.333 226.426 393.333 224.977C393.333 223.784 393.537 222.766 393.944 221.923C394.351 221.071 394.919 220.375 395.648 219.835C396.378 219.295 397.225 218.884 398.191 218.599C399.166 218.315 400.218 218.131 401.344 218.045C402.566 217.951 403.546 217.837 404.285 217.705C405.033 217.562 405.573 217.368 405.904 217.122C406.236 216.866 406.401 216.53 406.401 216.114V216.057C406.401 215.489 406.183 215.053 405.748 214.75C405.312 214.447 404.754 214.295 404.072 214.295C403.324 214.295 402.713 214.461 402.239 214.793C401.775 215.115 401.496 215.612 401.401 216.284H394.185C394.28 214.958 394.701 213.737 395.45 212.619C396.207 211.492 397.31 210.593 398.759 209.92C400.208 209.239 402.017 208.898 404.185 208.898C405.748 208.898 407.149 209.082 408.39 209.452C409.63 209.812 410.686 210.318 411.558 210.972C412.429 211.616 413.092 212.373 413.546 213.244C414.01 214.106 414.242 215.044 414.242 216.057V231H406.913V227.932H406.742C406.307 228.746 405.776 229.404 405.151 229.906C404.536 230.408 403.83 230.773 403.035 231C402.249 231.227 401.382 231.341 400.435 231.341ZM402.992 226.398C403.589 226.398 404.147 226.275 404.668 226.028C405.199 225.782 405.629 225.427 405.961 224.963C406.292 224.499 406.458 223.936 406.458 223.273V221.455C406.25 221.54 406.027 221.62 405.79 221.696C405.563 221.772 405.317 221.843 405.052 221.909C404.796 221.975 404.522 222.037 404.228 222.094C403.944 222.151 403.646 222.203 403.333 222.25C402.727 222.345 402.23 222.501 401.842 222.719C401.463 222.927 401.179 223.188 400.989 223.5C400.809 223.803 400.719 224.144 400.719 224.523C400.719 225.129 400.933 225.593 401.359 225.915C401.785 226.237 402.329 226.398 402.992 226.398ZM425.83 201.909V231H417.989V201.909H425.83ZM437.665 201.909V231H429.825V201.909H437.665ZM455.808 221.455V209.182H463.649V231H456.206V226.852H455.979C455.505 228.244 454.677 229.333 453.493 230.119C452.309 230.896 450.903 231.284 449.274 231.284C447.75 231.284 446.414 230.934 445.268 230.233C444.132 229.532 443.247 228.566 442.612 227.335C441.987 226.104 441.67 224.693 441.661 223.102V209.182H449.501V221.455C449.511 222.534 449.786 223.382 450.325 223.997C450.875 224.613 451.642 224.92 452.626 224.92C453.28 224.92 453.843 224.783 454.317 224.509C454.8 224.224 455.169 223.827 455.425 223.315C455.69 222.795 455.818 222.174 455.808 221.455ZM467.637 231V209.182H475.251V213.33H475.478C475.876 211.795 476.505 210.673 477.367 209.963C478.238 209.253 479.256 208.898 480.421 208.898C480.762 208.898 481.098 208.926 481.43 208.983C481.771 209.03 482.097 209.101 482.41 209.196V215.886C482.022 215.754 481.543 215.654 480.975 215.588C480.407 215.522 479.919 215.489 479.512 215.489C478.745 215.489 478.054 215.664 477.438 216.014C476.832 216.355 476.354 216.838 476.004 217.463C475.653 218.079 475.478 218.803 475.478 219.636V231H467.637ZM484.981 231V209.182H492.822V231H484.981ZM488.901 206.909C487.841 206.909 486.932 206.559 486.174 205.858C485.416 205.157 485.038 204.314 485.038 203.33C485.038 202.345 485.416 201.502 486.174 200.801C486.932 200.1 487.841 199.75 488.901 199.75C489.971 199.75 490.88 200.1 491.629 200.801C492.386 201.502 492.765 202.345 492.765 203.33C492.765 204.314 492.386 205.157 491.629 205.858C490.88 206.559 489.971 206.909 488.901 206.909Z" fill="black" fill-opacity="0.54"/>
</g>
<defs>
<filter id="filter0_i_0_1" x="202.136" y="199.75" width="290.685" height="43.4318" filterUnits="userSpaceOnUse" color-interpolation-filters="sRGB">
<feFlood flood-opacity="0" result="BackgroundImageFix"/>
<feBlend mode="normal" in="SourceGraphic" in2="BackgroundImageFix" result="shape"/>
<feColorMatrix in="SourceAlpha" type="matrix" values="0 0 0 0 0 0 0 0 0 0 0 0 0 0 0 0 0 0 127 0" result="hardAlpha"/>
<feOffset dy="4"/>
<feGaussianBlur stdDeviation="2"/>
<feComposite in2="hardAlpha" operator="arithmetic" k2="-1" k3="1"/>
<feColorMatrix type="matrix" values="0 0 0 0 0 0 0 0 0 0 0 0 0 0 0 0 0 0 0.25 0"/>
<feBlend mode="normal" in2="shape" result="effect1_innerShadow_0_1"/>
</filter>
</defs>
</svg>
